<?xml version="1.0" encoding="utf-8"?>
<!-- Generator: Adobe Illustrator 15.1.0, SVG Export Plug-In . SVG Version: 6.00 Build 0)  -->
<!DOCTYPE svg PUBLIC "-//W3C//DTD SVG 1.1//EN" "http://www.w3.org/Graphics/SVG/1.1/DTD/svg11.dtd">
<svg version="1.1" id="Layer_1" xmlns="http://www.w3.org/2000/svg" xmlns:xlink="http://www.w3.org/1999/xlink" x="0px" y="0px"
	 width="152px" height="152px" viewBox="0 0 152 152" enable-background="new 0 0 152 152" xml:space="preserve">
<g opacity="0.1">
	<g>
		<g>
			<path fill="#FFFFFF" d="M121.659,220.063c0.016-0.014,0.033-0.029,0.049-0.046c0.619-0.545,1.203-1.092,1.733-1.623
				c3.654-3.654,5.723-7.201,6.172-10.573l2.659,0.712c0.503,0.135,1.041-0.01,1.41-0.379s0.514-0.906,0.379-1.41l-0.712-2.66
				c3.375-0.451,6.924-2.521,10.572-6.17c0.531-0.53,1.076-1.112,1.621-1.729c0.017-0.018,0.033-0.036,0.049-0.054
				c3.112-3.594,4.562-6.608,4.562-9.491c0-2.882-1.449-5.897-4.562-9.489c-0.014-0.017-0.029-0.033-0.045-0.05
				c-0.536-0.609-1.083-1.193-1.624-1.734c-3.648-3.648-7.199-5.719-10.573-6.17l0.712-2.659c0.135-0.504-0.01-1.042-0.379-1.411
				c-0.369-0.368-0.907-0.514-1.41-0.378l-2.659,0.711c-0.449-3.372-2.519-6.92-6.171-10.573c-0.549-0.548-1.144-1.105-1.707-1.598
				c-0.025-0.024-0.051-0.048-0.076-0.071c-3.593-3.112-6.608-4.562-9.491-4.562c-2.882,0-5.897,1.45-9.505,4.576
				c-0.626,0.55-1.22,1.107-1.768,1.655c-3.653,3.653-5.723,7.201-6.173,10.573l-2.658-0.711c-0.504-0.136-1.041,0.01-1.41,0.378
				c-0.369,0.369-0.514,0.907-0.379,1.411l0.712,2.659c-3.374,0.451-6.924,2.521-10.573,6.17c-0.54,0.54-1.085,1.122-1.621,1.729
				c-0.016,0.018-0.032,0.036-0.048,0.055c-3.112,3.592-4.562,6.607-4.562,9.489c0,2.883,1.45,5.897,4.562,9.491
				c0.014,0.016,0.029,0.033,0.045,0.049c0.545,0.62,1.092,1.203,1.624,1.733c3.649,3.649,7.199,5.72,10.573,6.171l-0.712,2.66
				c-0.135,0.504,0.01,1.041,0.379,1.41s0.906,0.514,1.41,0.379l2.658-0.712c0.449,3.372,2.519,6.919,6.172,10.572
				c0.53,0.531,1.111,1.076,1.729,1.621c0.019,0.017,0.036,0.033,0.055,0.049c3.594,3.112,6.608,4.562,9.49,4.562
				C115.051,224.625,118.065,223.176,121.659,220.063z M104.592,217.854c-0.584-0.514-1.133-1.026-1.631-1.526
				c-3.704-3.704-5.57-7.268-5.397-10.306c0.025-0.468-0.173-0.919-0.537-1.215c-0.365-0.297-0.847-0.4-1.3-0.279l-1.976,0.529
				l0.529-1.976c0.12-0.453,0.017-0.937-0.279-1.3c-0.295-0.364-0.749-0.556-1.216-0.537c-3.072,0.17-6.605-1.699-10.307-5.398
				c-0.498-0.498-1.011-1.047-1.524-1.631c-0.011-0.012-0.021-0.023-0.033-0.036c-2.604-3.013-3.816-5.41-3.816-7.54
				c0-2.128,1.212-4.524,3.814-7.537c0.013-0.013,0.023-0.026,0.036-0.039c0.504-0.575,1.017-1.124,1.524-1.631
				c3.7-3.701,7.252-5.572,10.306-5.398c0.467,0.022,0.921-0.173,1.216-0.536c0.296-0.363,0.399-0.847,0.279-1.3l-0.529-1.975
				l1.976,0.528c0.453,0.12,0.936,0.018,1.299-0.278c0.365-0.296,0.563-0.748,0.538-1.216c-0.173-3.039,1.693-6.603,5.398-10.307
				c0.503-0.504,1.052-1.018,1.63-1.526c0.008-0.006,0.016-0.013,0.023-0.02c3.019-2.612,5.42-3.829,7.553-3.829
				c2.134,0,4.534,1.217,7.554,3.829c0.008,0.007,0.015,0.014,0.022,0.02c0.578,0.509,1.127,1.022,1.631,1.526
				c3.704,3.704,5.57,7.268,5.398,10.307c-0.025,0.468,0.173,0.92,0.537,1.216c0.363,0.296,0.849,0.398,1.3,0.278l1.976-0.528
				l-0.529,1.975c-0.121,0.453-0.017,0.937,0.278,1.3s0.749,0.559,1.216,0.536c3.076-0.178,6.606,1.699,10.306,5.398
				c0.508,0.507,1.021,1.056,1.525,1.631c0.011,0.012,0.022,0.024,0.034,0.037c2.604,3.013,3.815,5.41,3.815,7.539
				s-1.212,4.525-3.813,7.537c-0.012,0.014-0.023,0.026-0.035,0.039c-0.514,0.584-1.026,1.133-1.526,1.632
				c-3.699,3.697-7.236,5.567-10.306,5.397c-0.467-0.019-0.921,0.173-1.216,0.537c-0.295,0.363-0.399,0.847-0.278,1.3l0.529,1.976
				l-1.976-0.529c-0.451-0.121-0.938-0.018-1.301,0.279c-0.363,0.296-0.562,0.747-0.536,1.215c0.173,3.038-1.694,6.602-5.398,10.307
				c-0.498,0.499-1.047,1.012-1.631,1.525c-0.013,0.01-0.023,0.021-0.036,0.033c-3.013,2.604-5.41,3.815-7.54,3.815
				c-2.128,0-4.524-1.211-7.537-3.813C104.618,217.878,104.605,217.866,104.592,217.854z"/>
		</g>
		<g>
			<path fill="#FFFFFF" d="M45.629,220.063c0.017-0.014,0.033-0.029,0.051-0.046c0.617-0.544,1.2-1.09,1.733-1.623
				c3.653-3.653,5.722-7.2,6.171-10.573l2.658,0.712c0.505,0.134,1.042-0.01,1.41-0.379c0.369-0.369,0.514-0.906,0.379-1.41
				l-0.711-2.66c3.374-0.451,6.924-2.521,10.572-6.17c0.549-0.549,1.106-1.144,1.599-1.707c0.024-0.025,0.048-0.051,0.071-0.076
				c3.112-3.594,4.562-6.609,4.562-9.491s-1.45-5.897-4.576-9.505c-0.549-0.624-1.106-1.219-1.655-1.769
				c-3.649-3.649-7.199-5.72-10.573-6.17l0.711-2.66c0.135-0.503-0.01-1.041-0.379-1.41c-0.368-0.368-0.907-0.513-1.41-0.378
				l-2.658,0.711c-0.449-3.373-2.518-6.92-6.171-10.573c-0.55-0.55-1.145-1.106-1.707-1.598c-0.025-0.024-0.05-0.048-0.076-0.071
				c-3.593-3.112-6.609-4.562-9.491-4.562c-2.882,0-5.898,1.45-9.505,4.576c-0.625,0.549-1.219,1.105-1.769,1.655
				c-3.654,3.653-5.722,7.2-6.171,10.573l-2.659-0.711c-0.502-0.135-1.041,0.01-1.41,0.378c-0.369,0.369-0.513,0.907-0.379,1.41
				l0.711,2.66c-3.375,0.45-6.924,2.521-10.573,6.17c-0.549,0.55-1.106,1.145-1.598,1.707c-0.024,0.024-0.048,0.05-0.071,0.076
				c-3.113,3.593-4.562,6.608-4.562,9.49s1.449,5.897,4.576,9.505c0.55,0.626,1.107,1.221,1.655,1.769
				c3.649,3.649,7.199,5.721,10.573,6.171l-0.711,2.66c-0.134,0.504,0.01,1.041,0.379,1.41c0.37,0.369,0.905,0.513,1.411,0.379
				l2.658-0.712c0.449,3.373,2.518,6.92,6.171,10.573c0.531,0.531,1.113,1.076,1.729,1.62c0.018,0.017,0.036,0.033,0.055,0.049
				c3.592,3.112,6.608,4.562,9.49,4.562C39.021,224.625,42.037,223.176,45.629,220.063z M28.563,217.854
				c-0.583-0.513-1.132-1.026-1.631-1.526c-3.704-3.703-5.57-7.268-5.398-10.306c0.026-0.468-0.173-0.919-0.537-1.215
				c-0.363-0.297-0.847-0.4-1.3-0.279l-1.975,0.529l0.528-1.976c0.121-0.453,0.018-0.937-0.278-1.3s-0.734-0.559-1.216-0.537
				c-3.063,0.174-6.606-1.698-10.306-5.398c-0.504-0.504-1.018-1.053-1.526-1.631c-0.006-0.008-0.013-0.015-0.02-0.022
				c-2.612-3.021-3.828-5.421-3.828-7.554s1.216-4.533,3.828-7.553c0.007-0.008,0.014-0.016,0.02-0.022
				c0.508-0.578,1.022-1.126,1.527-1.632c3.7-3.7,7.239-5.571,10.306-5.398c0.469,0.032,0.921-0.172,1.216-0.536
				c0.295-0.363,0.399-0.847,0.278-1.299l-0.528-1.976l1.976,0.528c0.451,0.121,0.936,0.018,1.299-0.278s0.563-0.748,0.537-1.216
				c-0.172-3.039,1.694-6.603,5.398-10.307c0.505-0.505,1.054-1.019,1.631-1.526c0.007-0.006,0.015-0.013,0.023-0.02
				c3.02-2.612,5.42-3.829,7.553-3.829c2.133,0,4.534,1.217,7.553,3.829c0.008,0.007,0.016,0.014,0.022,0.02
				c0.578,0.508,1.126,1.021,1.632,1.526c3.703,3.704,5.57,7.268,5.397,10.307c-0.026,0.468,0.174,0.92,0.537,1.216
				s0.849,0.399,1.299,0.278l1.976-0.528l-0.528,1.976c-0.121,0.452-0.018,0.936,0.278,1.299c0.296,0.364,0.752,0.568,1.216,0.536
				c3.066-0.175,6.606,1.698,10.306,5.398c0.506,0.506,1.019,1.054,1.527,1.632c0.006,0.007,0.013,0.015,0.02,0.022
				c2.612,3.02,3.828,5.42,3.828,7.553s-1.216,4.533-3.827,7.554c-0.008,0.008-0.015,0.015-0.021,0.022
				c-0.509,0.578-1.022,1.127-1.527,1.632c-3.699,3.698-7.242,5.571-10.306,5.397c-0.472-0.016-0.92,0.174-1.216,0.537
				s-0.399,0.847-0.278,1.3l0.528,1.976l-1.975-0.529c-0.453-0.121-0.937-0.018-1.3,0.279c-0.363,0.296-0.563,0.747-0.537,1.215
				c0.173,3.038-1.694,6.603-5.397,10.306c-0.5,0.5-1.048,1.014-1.632,1.526c-0.012,0.01-0.024,0.021-0.036,0.033
				c-3.014,2.604-5.41,3.815-7.54,3.815s-4.525-1.211-7.538-3.813C28.589,217.878,28.576,217.866,28.563,217.854z"/>
		</g>
	</g>
</g>
<g opacity="0.1">
	<g>
		<g>
			<path fill="#FFFFFF" d="M197.629,144.093c0.017-0.014,0.033-0.029,0.051-0.046c0.617-0.544,1.2-1.09,1.733-1.623
				c3.653-3.653,5.722-7.2,6.171-10.573l2.658,0.712c0.505,0.134,1.042-0.009,1.41-0.379c0.369-0.369,0.514-0.906,0.379-1.41
				l-0.711-2.66c3.374-0.451,6.924-2.521,10.572-6.17c0.549-0.549,1.106-1.144,1.599-1.707c0.024-0.025,0.048-0.051,0.071-0.076
				c3.112-3.594,4.562-6.609,4.562-9.491s-1.45-5.897-4.576-9.505c-0.55-0.626-1.107-1.22-1.655-1.768
				c-3.65-3.65-7.199-5.721-10.573-6.172l0.711-2.659c0.135-0.504-0.01-1.041-0.379-1.41c-0.368-0.369-0.905-0.513-1.41-0.379
				l-2.658,0.712c-0.449-3.373-2.518-6.92-6.171-10.573c-0.54-0.54-1.122-1.085-1.73-1.621c-0.018-0.016-0.035-0.032-0.054-0.048
				c-3.592-3.112-6.607-4.562-9.49-4.562c-2.882,0-5.897,1.45-9.49,4.562c-0.016,0.014-0.032,0.029-0.049,0.044
				c-0.609,0.537-1.193,1.084-1.734,1.625c-3.653,3.653-5.722,7.2-6.171,10.573l-2.658-0.712c-0.505-0.134-1.041,0.01-1.411,0.379
				c-0.369,0.369-0.513,0.906-0.378,1.41l0.711,2.659c-3.374,0.451-6.923,2.521-10.573,6.171c-0.549,0.549-1.105,1.143-1.598,1.707
				c-0.024,0.024-0.049,0.051-0.071,0.076c-3.112,3.593-4.562,6.608-4.562,9.49s1.45,5.897,4.576,9.505
				c0.55,0.626,1.106,1.221,1.655,1.769c3.649,3.649,7.199,5.721,10.573,6.171l-0.711,2.66c-0.135,0.504,0.009,1.041,0.378,1.41
				c0.37,0.37,0.906,0.513,1.411,0.379l2.658-0.712c0.449,3.373,2.518,6.92,6.171,10.573c0.531,0.531,1.113,1.076,1.729,1.619
				c0.019,0.018,0.037,0.034,0.055,0.05c3.593,3.112,6.608,4.562,9.49,4.562C191.021,148.654,194.037,147.205,197.629,144.093z
				 M180.563,141.884c-0.584-0.513-1.133-1.026-1.632-1.526c-3.703-3.703-5.57-7.268-5.398-10.306
				c0.027-0.468-0.173-0.92-0.536-1.216s-0.847-0.399-1.3-0.278l-1.975,0.529l0.528-1.976c0.12-0.453,0.018-0.937-0.278-1.3
				c-0.296-0.364-0.734-0.552-1.216-0.537c-3.063,0.169-6.606-1.699-10.307-5.398c-0.504-0.504-1.018-1.053-1.526-1.631
				c-0.006-0.008-0.013-0.015-0.021-0.022c-2.611-3.021-3.827-5.421-3.827-7.554s1.216-4.534,3.828-7.553
				c0.007-0.008,0.014-0.016,0.02-0.022c0.509-0.579,1.022-1.128,1.526-1.632c3.701-3.7,7.247-5.572,10.307-5.397
				c0.468,0.023,0.92-0.173,1.216-0.537c0.296-0.363,0.398-0.847,0.278-1.3l-0.528-1.976l1.975,0.529
				c0.453,0.121,0.937,0.018,1.3-0.279c0.363-0.296,0.563-0.747,0.536-1.216c-0.172-3.037,1.695-6.602,5.398-10.306
				c0.507-0.508,1.056-1.021,1.631-1.524c0.012-0.012,0.024-0.022,0.037-0.034c3.013-2.604,5.41-3.816,7.539-3.816
				c2.13,0,4.525,1.212,7.538,3.814c0.013,0.013,0.026,0.023,0.039,0.036c0.575,0.504,1.123,1.017,1.631,1.524
				c3.703,3.704,5.57,7.269,5.397,10.306c-0.026,0.469,0.174,0.92,0.537,1.216c0.363,0.297,0.847,0.4,1.3,0.279l1.975-0.529
				l-0.528,1.976c-0.121,0.453-0.018,0.937,0.278,1.3c0.297,0.364,0.753,0.561,1.216,0.537c3.075-0.172,6.606,1.697,10.307,5.398
				c0.504,0.503,1.018,1.052,1.526,1.631c0.006,0.007,0.013,0.015,0.02,0.022c2.612,3.019,3.828,5.42,3.828,7.553
				s-1.216,4.533-3.827,7.554c-0.008,0.008-0.015,0.015-0.021,0.022c-0.509,0.578-1.022,1.127-1.527,1.632
				c-3.699,3.698-7.242,5.569-10.306,5.397c-0.472-0.015-0.92,0.173-1.216,0.537c-0.296,0.363-0.399,0.847-0.278,1.3l0.528,1.976
				l-1.975-0.529c-0.453-0.121-0.937-0.018-1.3,0.278s-0.563,0.748-0.537,1.216c0.173,3.038-1.694,6.603-5.397,10.306
				c-0.499,0.5-1.048,1.014-1.632,1.526c-0.012,0.01-0.024,0.021-0.036,0.033c-3.014,2.603-5.41,3.815-7.54,3.815
				c-2.129,0-4.524-1.211-7.537-3.813C180.589,141.907,180.576,141.896,180.563,141.884z"/>
		</g>
		<g>
			<path fill="#FFFFFF" d="M197.629,68.063c0.017-0.014,0.033-0.029,0.051-0.046c0.617-0.544,1.2-1.09,1.733-1.623
				c3.653-3.653,5.722-7.2,6.171-10.573l2.658,0.712c0.505,0.134,1.042-0.01,1.41-0.379c0.369-0.369,0.514-0.906,0.379-1.41
				l-0.711-2.66c3.374-0.451,6.924-2.521,10.572-6.17c0.549-0.549,1.106-1.144,1.599-1.707c0.024-0.025,0.048-0.051,0.071-0.076
				c3.112-3.594,4.562-6.609,4.562-9.491s-1.45-5.897-4.576-9.505c-0.549-0.624-1.106-1.219-1.655-1.769
				c-3.649-3.649-7.199-5.72-10.573-6.17l0.711-2.66c0.135-0.503-0.01-1.041-0.379-1.41c-0.368-0.368-0.907-0.513-1.41-0.378
				l-2.658,0.711c-0.449-3.373-2.518-6.92-6.171-10.573c-0.55-0.55-1.145-1.106-1.707-1.598c-0.025-0.024-0.05-0.048-0.076-0.071
				c-3.593-3.112-6.608-4.562-9.491-4.562c-2.882,0-5.897,1.45-9.505,4.576c-0.624,0.549-1.219,1.105-1.769,1.655
				c-3.653,3.653-5.722,7.2-6.171,10.573l-2.659-0.711c-0.502-0.135-1.041,0.01-1.41,0.378c-0.369,0.369-0.513,0.907-0.378,1.41
				l0.711,2.66c-3.374,0.45-6.924,2.521-10.573,6.17c-0.55,0.55-1.106,1.145-1.598,1.707c-0.024,0.024-0.049,0.05-0.071,0.076
				c-3.112,3.593-4.562,6.608-4.562,9.49s1.45,5.897,4.576,9.505c0.55,0.626,1.106,1.221,1.655,1.769
				c3.649,3.649,7.199,5.721,10.573,6.171l-0.711,2.66c-0.135,0.504,0.009,1.041,0.378,1.41c0.37,0.369,0.906,0.513,1.411,0.379
				l2.658-0.712c0.449,3.373,2.518,6.92,6.171,10.573c0.531,0.531,1.113,1.076,1.729,1.62c0.019,0.017,0.037,0.033,0.055,0.049
				c3.593,3.112,6.608,4.562,9.49,4.562C191.021,72.625,194.037,71.176,197.629,68.063z M180.563,65.854
				c-0.584-0.513-1.133-1.026-1.632-1.526c-3.703-3.703-5.57-7.268-5.398-10.306c0.027-0.468-0.173-0.919-0.536-1.215
				c-0.363-0.297-0.847-0.4-1.3-0.279l-1.975,0.529l0.528-1.976c0.12-0.453,0.018-0.937-0.278-1.3s-0.734-0.559-1.216-0.537
				c-3.063,0.174-6.606-1.698-10.307-5.398c-0.504-0.504-1.018-1.053-1.526-1.631c-0.006-0.008-0.013-0.015-0.021-0.022
				c-2.611-3.021-3.827-5.421-3.827-7.554s1.216-4.533,3.828-7.553c0.007-0.008,0.014-0.016,0.02-0.022
				c0.508-0.578,1.021-1.126,1.526-1.632c3.7-3.7,7.239-5.571,10.307-5.398c0.468,0.032,0.92-0.172,1.216-0.536
				c0.296-0.363,0.398-0.847,0.278-1.299l-0.528-1.976l1.976,0.528c0.45,0.121,0.936,0.018,1.299-0.278s0.563-0.748,0.536-1.216
				c-0.172-3.039,1.695-6.603,5.398-10.307c0.506-0.505,1.054-1.019,1.632-1.526c0.007-0.006,0.015-0.013,0.022-0.02
				c3.02-2.612,5.42-3.829,7.553-3.829c2.134,0,4.534,1.217,7.554,3.829c0.008,0.007,0.016,0.014,0.022,0.02
				c0.577,0.508,1.126,1.021,1.632,1.526c3.703,3.704,5.57,7.268,5.397,10.307c-0.026,0.468,0.174,0.92,0.537,1.216
				s0.849,0.399,1.299,0.278l1.976-0.528l-0.528,1.976c-0.121,0.452-0.018,0.936,0.278,1.299c0.296,0.364,0.753,0.568,1.216,0.536
				c3.066-0.175,6.606,1.698,10.306,5.398c0.506,0.506,1.019,1.054,1.527,1.632c0.006,0.007,0.013,0.015,0.02,0.022
				c2.612,3.02,3.828,5.42,3.828,7.553s-1.216,4.533-3.827,7.554c-0.008,0.008-0.015,0.015-0.021,0.022
				c-0.509,0.578-1.022,1.127-1.527,1.632c-3.699,3.698-7.242,5.571-10.306,5.397c-0.472-0.016-0.92,0.174-1.216,0.537
				s-0.399,0.847-0.278,1.3l0.528,1.976l-1.975-0.529c-0.453-0.121-0.937-0.018-1.3,0.279c-0.363,0.296-0.563,0.747-0.537,1.215
				c0.173,3.038-1.694,6.603-5.397,10.306c-0.499,0.5-1.048,1.014-1.632,1.526c-0.012,0.01-0.024,0.021-0.036,0.033
				c-3.014,2.604-5.41,3.815-7.54,3.815c-2.129,0-4.524-1.211-7.537-3.813C180.589,65.878,180.576,65.866,180.563,65.854z"/>
		</g>
	</g>
</g>
<g opacity="0.1">
	<g>
		<path fill="#FFFFFF" d="M121.659,144.093c0.016-0.014,0.033-0.029,0.049-0.046c0.619-0.545,1.203-1.092,1.733-1.623
			c3.654-3.654,5.723-7.201,6.172-10.573l2.659,0.712c0.503,0.134,1.041-0.01,1.41-0.379s0.514-0.906,0.379-1.41l-0.712-2.66
			c3.375-0.451,6.924-2.521,10.572-6.17c0.531-0.531,1.076-1.112,1.621-1.729c0.017-0.018,0.033-0.036,0.049-0.054
			c3.112-3.594,4.562-6.609,4.562-9.491s-1.449-5.896-4.562-9.49c-0.014-0.017-0.029-0.032-0.045-0.049
			c-0.537-0.611-1.084-1.194-1.624-1.733c-3.649-3.65-7.199-5.721-10.573-6.172l0.712-2.659c0.135-0.504-0.01-1.041-0.379-1.41
			s-0.907-0.513-1.41-0.379l-2.659,0.712c-0.449-3.373-2.519-6.92-6.171-10.572c-0.538-0.54-1.12-1.086-1.73-1.622
			c-0.017-0.016-0.035-0.032-0.053-0.048c-3.594-3.112-6.608-4.562-9.491-4.562c-2.882,0-5.896,1.45-9.49,4.562
			c-0.017,0.014-0.032,0.029-0.049,0.044c-0.611,0.538-1.194,1.085-1.733,1.625c-3.653,3.653-5.723,7.2-6.173,10.573l-2.658-0.712
			c-0.504-0.134-1.041,0.01-1.41,0.379s-0.514,0.906-0.379,1.41l0.712,2.659c-3.374,0.451-6.924,2.521-10.572,6.171
			c-0.54,0.538-1.085,1.12-1.622,1.729c-0.016,0.018-0.032,0.035-0.048,0.054c-3.112,3.594-4.562,6.608-4.562,9.49
			s1.45,5.897,4.562,9.491c0.014,0.016,0.029,0.033,0.045,0.049c0.545,0.619,1.092,1.203,1.624,1.733
			c3.649,3.649,7.199,5.72,10.573,6.171l-0.712,2.66c-0.135,0.504,0.01,1.041,0.379,1.41s0.906,0.513,1.41,0.379l2.658-0.712
			c0.449,3.372,2.519,6.919,6.172,10.572c0.53,0.531,1.111,1.076,1.729,1.62c0.019,0.018,0.036,0.034,0.055,0.05
			c3.594,3.112,6.608,4.562,9.49,4.562C115.051,148.654,118.065,147.205,121.659,144.093z M104.592,141.884
			c-0.584-0.514-1.133-1.026-1.631-1.526c-3.704-3.704-5.57-7.268-5.397-10.306c0.025-0.468-0.173-0.92-0.537-1.216
			c-0.365-0.296-0.847-0.398-1.3-0.278l-1.976,0.529l0.529-1.976c0.12-0.453,0.017-0.937-0.279-1.3
			c-0.295-0.364-0.749-0.553-1.216-0.537c-3.072,0.177-6.605-1.698-10.307-5.398c-0.498-0.498-1.011-1.047-1.524-1.631
			c-0.011-0.013-0.021-0.023-0.033-0.036c-2.604-3.013-3.816-5.41-3.816-7.54c0-2.128,1.212-4.524,3.814-7.537
			c0.013-0.013,0.023-0.026,0.036-0.039c0.505-0.576,1.018-1.125,1.524-1.631c3.701-3.701,7.232-5.572,10.306-5.397
			c0.467,0.017,0.921-0.173,1.216-0.537c0.296-0.363,0.399-0.847,0.279-1.3l-0.529-1.976l1.976,0.529
			c0.453,0.121,0.936,0.018,1.299-0.279c0.365-0.295,0.563-0.747,0.538-1.216c-0.173-3.037,1.693-6.602,5.398-10.307
			c0.505-0.506,1.054-1.019,1.63-1.523c0.012-0.012,0.024-0.022,0.037-0.034c3.013-2.604,5.41-3.816,7.539-3.816
			s4.525,1.212,7.537,3.814c0.014,0.013,0.026,0.023,0.04,0.036c0.575,0.505,1.124,1.018,1.63,1.524
			c3.704,3.704,5.57,7.269,5.398,10.306c-0.025,0.469,0.173,0.921,0.537,1.216c0.363,0.297,0.849,0.4,1.3,0.279l1.976-0.529
			l-0.529,1.976c-0.121,0.453-0.017,0.937,0.278,1.3c0.295,0.364,0.749,0.554,1.216,0.537c3.053-0.175,6.606,1.696,10.307,5.398
			c0.506,0.505,1.019,1.054,1.524,1.63c0.011,0.012,0.022,0.024,0.034,0.037c2.604,3.013,3.815,5.41,3.815,7.539
			s-1.212,4.525-3.813,7.537c-0.012,0.014-0.023,0.026-0.035,0.039c-0.514,0.584-1.026,1.133-1.526,1.632
			c-3.699,3.698-7.236,5.574-10.306,5.397c-0.467-0.016-0.921,0.173-1.216,0.537c-0.295,0.363-0.399,0.847-0.278,1.3l0.529,1.976
			l-1.976-0.529c-0.451-0.12-0.938-0.018-1.301,0.278s-0.562,0.748-0.536,1.216c0.173,3.038-1.694,6.602-5.398,10.307
			c-0.498,0.499-1.047,1.012-1.631,1.525c-0.013,0.01-0.023,0.021-0.036,0.033c-3.013,2.603-5.41,3.815-7.54,3.815
			c-2.128,0-4.524-1.211-7.537-3.813C104.618,141.907,104.605,141.896,104.592,141.884z"/>
	</g>
	<g>
		<path fill="#FFFFFF" d="M45.629,144.093c0.017-0.014,0.033-0.029,0.051-0.046c0.617-0.544,1.2-1.09,1.733-1.623
			c3.653-3.653,5.722-7.2,6.171-10.573l2.658,0.712c0.505,0.134,1.042-0.009,1.41-0.379c0.369-0.369,0.514-0.906,0.379-1.41
			l-0.711-2.66c3.374-0.451,6.924-2.521,10.572-6.17c0.549-0.549,1.106-1.144,1.599-1.707c0.024-0.025,0.048-0.051,0.071-0.076
			c3.112-3.594,4.562-6.609,4.562-9.491s-1.45-5.897-4.576-9.505c-0.55-0.626-1.107-1.22-1.655-1.768
			c-3.65-3.65-7.199-5.721-10.573-6.172l0.711-2.659c0.135-0.504-0.01-1.041-0.379-1.41c-0.368-0.369-0.905-0.513-1.41-0.379
			l-2.658,0.712c-0.449-3.373-2.518-6.92-6.171-10.573c-0.54-0.54-1.122-1.085-1.73-1.621c-0.018-0.016-0.035-0.032-0.054-0.048
			c-3.592-3.112-6.608-4.562-9.49-4.562c-2.882,0-5.898,1.45-9.49,4.562c-0.016,0.014-0.033,0.029-0.049,0.044
			c-0.61,0.537-1.193,1.084-1.734,1.625c-3.653,3.653-5.722,7.2-6.171,10.573l-2.658-0.712c-0.505-0.134-1.041,0.01-1.411,0.379
			c-0.369,0.369-0.513,0.906-0.379,1.41l0.711,2.659c-3.374,0.451-6.923,2.521-10.573,6.171c-0.549,0.549-1.106,1.143-1.598,1.707
			c-0.024,0.024-0.048,0.051-0.071,0.076c-3.113,3.593-4.562,6.608-4.562,9.49s1.449,5.897,4.576,9.505
			c0.55,0.626,1.107,1.221,1.655,1.769c3.649,3.649,7.199,5.721,10.573,6.171l-0.711,2.66c-0.134,0.504,0.01,1.041,0.379,1.41
			c0.37,0.37,0.905,0.513,1.411,0.379l2.658-0.712c0.449,3.373,2.518,6.92,6.171,10.573c0.531,0.531,1.113,1.076,1.729,1.619
			c0.018,0.018,0.036,0.034,0.055,0.05c3.592,3.112,6.608,4.562,9.49,4.562C39.021,148.654,42.037,147.205,45.629,144.093z
			 M28.563,141.884c-0.583-0.513-1.132-1.026-1.631-1.526c-3.704-3.703-5.57-7.268-5.398-10.306c0.026-0.468-0.173-0.92-0.537-1.216
			s-0.847-0.399-1.3-0.278l-1.975,0.529l0.528-1.976c0.121-0.453,0.018-0.937-0.278-1.3c-0.295-0.364-0.734-0.552-1.216-0.537
			c-3.063,0.169-6.606-1.699-10.306-5.398c-0.504-0.504-1.018-1.053-1.526-1.631c-0.006-0.008-0.013-0.015-0.02-0.022
			c-2.612-3.021-3.828-5.421-3.828-7.554s1.216-4.534,3.828-7.553c0.007-0.008,0.014-0.016,0.02-0.022
			c0.509-0.579,1.022-1.128,1.527-1.632c3.701-3.7,7.247-5.572,10.306-5.397c0.469,0.023,0.92-0.173,1.216-0.537
			c0.295-0.363,0.399-0.847,0.278-1.3l-0.528-1.976l1.975,0.529c0.453,0.121,0.937,0.018,1.3-0.279
			c0.363-0.296,0.563-0.747,0.537-1.216c-0.172-3.037,1.694-6.602,5.398-10.306c0.507-0.508,1.056-1.021,1.63-1.524
			c0.013-0.012,0.025-0.022,0.037-0.034c3.013-2.604,5.41-3.816,7.54-3.816c2.129,0,4.525,1.212,7.537,3.814
			c0.013,0.013,0.026,0.023,0.04,0.036c0.575,0.504,1.124,1.017,1.631,1.524c3.703,3.704,5.57,7.269,5.397,10.306
			c-0.026,0.469,0.174,0.92,0.537,1.216c0.363,0.297,0.847,0.4,1.3,0.279l1.975-0.529l-0.528,1.976
			c-0.121,0.453-0.018,0.937,0.278,1.3c0.297,0.364,0.752,0.561,1.216,0.537c3.075-0.172,6.606,1.697,10.307,5.398
			c0.504,0.503,1.018,1.052,1.526,1.631c0.006,0.007,0.013,0.015,0.02,0.022c2.612,3.019,3.828,5.42,3.828,7.553
			s-1.216,4.533-3.827,7.554c-0.008,0.008-0.015,0.015-0.021,0.022c-0.509,0.578-1.022,1.127-1.527,1.632
			c-3.699,3.698-7.242,5.569-10.306,5.397c-0.472-0.015-0.92,0.173-1.216,0.537c-0.296,0.363-0.399,0.847-0.278,1.3l0.528,1.976
			l-1.975-0.529c-0.453-0.121-0.937-0.018-1.3,0.278s-0.563,0.748-0.537,1.216c0.173,3.038-1.694,6.603-5.397,10.306
			c-0.5,0.5-1.048,1.014-1.632,1.526c-0.012,0.01-0.024,0.021-0.036,0.033c-3.014,2.603-5.41,3.815-7.54,3.815
			s-4.525-1.211-7.538-3.813C28.589,141.907,28.576,141.896,28.563,141.884z"/>
	</g>
	<g>
		<path fill="#FFFFFF" d="M121.659,68.063c0.016-0.014,0.033-0.029,0.049-0.046c0.619-0.545,1.203-1.092,1.733-1.623
			c3.654-3.654,5.723-7.201,6.172-10.573l2.659,0.712c0.503,0.135,1.041-0.01,1.41-0.379s0.514-0.906,0.379-1.41l-0.712-2.66
			c3.375-0.451,6.924-2.521,10.572-6.17c0.531-0.53,1.076-1.112,1.621-1.729c0.017-0.018,0.033-0.036,0.049-0.054
			c3.112-3.594,4.562-6.608,4.562-9.491c0-2.882-1.449-5.897-4.562-9.489c-0.014-0.017-0.029-0.033-0.045-0.05
			c-0.536-0.609-1.083-1.193-1.624-1.734c-3.648-3.648-7.199-5.719-10.573-6.17l0.712-2.659c0.135-0.504-0.01-1.042-0.379-1.411
			c-0.369-0.368-0.907-0.514-1.41-0.378l-2.659,0.711c-0.449-3.372-2.519-6.92-6.171-10.573c-0.549-0.548-1.144-1.105-1.707-1.598
			c-0.025-0.024-0.051-0.048-0.076-0.071c-3.593-3.112-6.608-4.562-9.491-4.562c-2.882,0-5.897,1.45-9.505,4.576
			c-0.626,0.55-1.22,1.107-1.768,1.655c-3.653,3.653-5.723,7.201-6.173,10.573l-2.658-0.711c-0.504-0.136-1.041,0.01-1.41,0.378
			c-0.369,0.369-0.514,0.907-0.379,1.411l0.712,2.659c-3.374,0.451-6.924,2.521-10.573,6.17c-0.54,0.54-1.085,1.122-1.621,1.729
			c-0.016,0.018-0.032,0.036-0.048,0.055c-3.112,3.592-4.562,6.607-4.562,9.489c0,2.883,1.45,5.897,4.562,9.491
			c0.014,0.016,0.029,0.033,0.045,0.049c0.545,0.62,1.092,1.203,1.624,1.733c3.649,3.649,7.199,5.72,10.573,6.171l-0.712,2.66
			c-0.135,0.504,0.01,1.041,0.379,1.41s0.906,0.514,1.41,0.379l2.658-0.712c0.449,3.372,2.519,6.919,6.172,10.572
			c0.53,0.531,1.111,1.076,1.729,1.621c0.019,0.017,0.036,0.033,0.055,0.049c3.594,3.112,6.608,4.562,9.49,4.562
			C115.051,72.625,118.065,71.176,121.659,68.063z M104.592,65.854c-0.584-0.514-1.133-1.026-1.631-1.526
			c-3.704-3.704-5.57-7.268-5.397-10.306c0.025-0.468-0.173-0.919-0.537-1.215c-0.365-0.297-0.847-0.4-1.3-0.279l-1.976,0.529
			l0.529-1.976c0.12-0.453,0.017-0.937-0.279-1.3c-0.295-0.364-0.749-0.556-1.216-0.537c-3.072,0.17-6.605-1.699-10.307-5.398
			c-0.498-0.498-1.011-1.047-1.524-1.631c-0.011-0.012-0.021-0.023-0.033-0.036c-2.604-3.013-3.816-5.41-3.816-7.54
			c0-2.128,1.212-4.524,3.814-7.537c0.013-0.013,0.023-0.026,0.036-0.039c0.504-0.575,1.017-1.124,1.524-1.631
			c3.7-3.701,7.252-5.572,10.306-5.398c0.467,0.022,0.921-0.173,1.216-0.536c0.296-0.363,0.399-0.847,0.279-1.3l-0.529-1.975
			l1.976,0.528c0.453,0.12,0.936,0.018,1.299-0.278c0.365-0.296,0.563-0.748,0.538-1.216c-0.173-3.039,1.693-6.603,5.398-10.307
			c0.503-0.504,1.052-1.018,1.63-1.526c0.008-0.006,0.016-0.013,0.023-0.02c3.019-2.612,5.42-3.829,7.553-3.829
			c2.134,0,4.534,1.217,7.554,3.829c0.008,0.007,0.015,0.014,0.022,0.02c0.578,0.509,1.127,1.022,1.631,1.526
			c3.704,3.704,5.57,7.268,5.398,10.307c-0.025,0.468,0.173,0.92,0.537,1.216c0.363,0.296,0.849,0.398,1.3,0.278l1.976-0.528
			l-0.529,1.975c-0.121,0.453-0.017,0.937,0.278,1.3s0.749,0.559,1.216,0.536c3.076-0.178,6.606,1.699,10.306,5.398
			c0.508,0.507,1.021,1.056,1.525,1.631c0.011,0.012,0.022,0.024,0.034,0.037c2.604,3.013,3.815,5.41,3.815,7.539
			s-1.212,4.525-3.813,7.537c-0.012,0.014-0.023,0.026-0.035,0.039c-0.514,0.584-1.026,1.133-1.526,1.632
			c-3.699,3.697-7.236,5.567-10.306,5.397c-0.467-0.019-0.921,0.173-1.216,0.537c-0.295,0.363-0.399,0.847-0.278,1.3l0.529,1.976
			l-1.976-0.529c-0.451-0.121-0.938-0.018-1.301,0.279c-0.363,0.296-0.562,0.747-0.536,1.215c0.173,3.038-1.694,6.602-5.398,10.307
			c-0.498,0.499-1.047,1.012-1.631,1.525c-0.013,0.01-0.023,0.021-0.036,0.033c-3.013,2.604-5.41,3.815-7.54,3.815
			c-2.128,0-4.524-1.211-7.537-3.813C104.618,65.878,104.605,65.866,104.592,65.854z"/>
	</g>
	<g>
		<path fill="#FFFFFF" d="M45.629,68.063c0.017-0.014,0.033-0.029,0.051-0.046c0.617-0.544,1.2-1.09,1.733-1.623
			c3.653-3.653,5.722-7.2,6.171-10.573l2.658,0.712c0.505,0.134,1.042-0.01,1.41-0.379c0.369-0.369,0.514-0.906,0.379-1.41
			l-0.711-2.66c3.374-0.451,6.924-2.521,10.572-6.17c0.549-0.549,1.106-1.144,1.599-1.707c0.024-0.025,0.048-0.051,0.071-0.076
			c3.112-3.594,4.562-6.609,4.562-9.491s-1.45-5.897-4.576-9.505c-0.549-0.624-1.106-1.219-1.655-1.769
			c-3.649-3.649-7.199-5.72-10.573-6.17l0.711-2.66c0.135-0.503-0.01-1.041-0.379-1.41c-0.368-0.368-0.907-0.513-1.41-0.378
			l-2.658,0.711c-0.449-3.373-2.518-6.92-6.171-10.573c-0.55-0.55-1.145-1.106-1.707-1.598c-0.025-0.024-0.05-0.048-0.076-0.071
			c-3.593-3.112-6.609-4.562-9.491-4.562c-2.882,0-5.898,1.45-9.505,4.576c-0.625,0.549-1.219,1.105-1.769,1.655
			c-3.654,3.653-5.722,7.2-6.171,10.573l-2.659-0.711c-0.502-0.135-1.041,0.01-1.41,0.378c-0.369,0.369-0.513,0.907-0.379,1.41
			l0.711,2.66c-3.375,0.45-6.924,2.521-10.573,6.17c-0.549,0.55-1.106,1.145-1.598,1.707c-0.024,0.024-0.048,0.05-0.071,0.076
			c-3.113,3.593-4.562,6.608-4.562,9.49s1.449,5.897,4.576,9.505c0.55,0.626,1.107,1.221,1.655,1.769
			c3.649,3.649,7.199,5.721,10.573,6.171l-0.711,2.66c-0.134,0.504,0.01,1.041,0.379,1.41c0.37,0.369,0.905,0.513,1.411,0.379
			l2.658-0.712c0.449,3.373,2.518,6.92,6.171,10.573c0.531,0.531,1.113,1.076,1.729,1.62c0.018,0.017,0.036,0.033,0.055,0.049
			c3.592,3.112,6.608,4.562,9.49,4.562C39.021,72.625,42.037,71.176,45.629,68.063z M28.563,65.854
			c-0.583-0.513-1.132-1.026-1.631-1.526c-3.704-3.703-5.57-7.268-5.398-10.306c0.026-0.468-0.173-0.919-0.537-1.215
			c-0.363-0.297-0.847-0.4-1.3-0.279l-1.975,0.529l0.528-1.976c0.121-0.453,0.018-0.937-0.278-1.3s-0.734-0.559-1.216-0.537
			c-3.063,0.174-6.606-1.698-10.306-5.398c-0.504-0.504-1.018-1.053-1.526-1.631c-0.006-0.008-0.013-0.015-0.02-0.022
			c-2.612-3.021-3.828-5.421-3.828-7.554s1.216-4.533,3.828-7.553c0.007-0.008,0.014-0.016,0.02-0.022
			c0.508-0.578,1.022-1.126,1.527-1.632c3.7-3.7,7.239-5.571,10.306-5.398c0.469,0.032,0.921-0.172,1.216-0.536
			c0.295-0.363,0.399-0.847,0.278-1.299l-0.528-1.976l1.976,0.528c0.451,0.121,0.936,0.018,1.299-0.278s0.563-0.748,0.537-1.216
			c-0.172-3.039,1.694-6.603,5.398-10.307c0.505-0.505,1.054-1.019,1.631-1.526c0.007-0.006,0.015-0.013,0.023-0.02
			c3.02-2.612,5.42-3.829,7.553-3.829c2.133,0,4.534,1.217,7.553,3.829c0.008,0.007,0.016,0.014,0.022,0.02
			c0.578,0.508,1.126,1.021,1.632,1.526c3.703,3.704,5.57,7.268,5.397,10.307c-0.026,0.468,0.174,0.92,0.537,1.216
			s0.849,0.399,1.299,0.278l1.976-0.528l-0.528,1.976c-0.121,0.452-0.018,0.936,0.278,1.299c0.296,0.364,0.752,0.568,1.216,0.536
			c3.066-0.175,6.606,1.698,10.306,5.398c0.506,0.506,1.019,1.054,1.527,1.632c0.006,0.007,0.013,0.015,0.02,0.022
			c2.612,3.02,3.828,5.42,3.828,7.553s-1.216,4.533-3.827,7.554c-0.008,0.008-0.015,0.015-0.021,0.022
			c-0.509,0.578-1.022,1.127-1.527,1.632c-3.699,3.698-7.242,5.571-10.306,5.397c-0.472-0.016-0.92,0.174-1.216,0.537
			s-0.399,0.847-0.278,1.3l0.528,1.976l-1.975-0.529c-0.453-0.121-0.937-0.018-1.3,0.279c-0.363,0.296-0.563,0.747-0.537,1.215
			c0.173,3.038-1.694,6.603-5.397,10.306c-0.5,0.5-1.048,1.014-1.632,1.526c-0.012,0.01-0.024,0.021-0.036,0.033
			c-3.014,2.604-5.41,3.815-7.54,3.815s-4.525-1.211-7.538-3.813C28.589,65.878,28.576,65.866,28.563,65.854z"/>
	</g>
</g>
<g opacity="0.1">
	<rect fill="none" width="152" height="152"/>
</g>
</svg>
